<?xml version="1.0" encoding="utf-8"?>
<svg xmlns="http://www.w3.org/2000/svg" xmlns:xlink="http://www.w3.org/1999/xlink" width="600" height="400" viewBox="0 0 2400 1600">
<defs>
  <clipPath id="clip030">
    <rect x="0" y="0" width="2400" height="1600"/>
  </clipPath>
</defs>
<path clip-path="url(#clip030)" d="M0 1600 L2400 1600 L2400 0 L0 0  Z" fill="#ffffff" fill-rule="evenodd" fill-opacity="1"/>
<defs>
  <clipPath id="clip031">
    <rect x="480" y="0" width="1681" height="1600"/>
  </clipPath>
</defs>
<path clip-path="url(#clip030)" d="M147.478 1486.45 L2352.76 1486.45 L2352.76 47.2441 L147.478 47.2441  Z" fill="#ffffff" fill-rule="evenodd" fill-opacity="1"/>
<defs>
  <clipPath id="clip032">
    <rect x="147" y="47" width="2206" height="1440"/>
  </clipPath>
</defs>
<polyline clip-path="url(#clip032)" style="stroke:#000000; stroke-linecap:round; stroke-linejoin:round; stroke-width:2; stroke-opacity:0.1; fill:none" points="449.139,1486.45 449.139,47.2441 "/>
<polyline clip-path="url(#clip032)" style="stroke:#000000; stroke-linecap:round; stroke-linejoin:round; stroke-width:2; stroke-opacity:0.1; fill:none" points="849.628,1486.45 849.628,47.2441 "/>
<polyline clip-path="url(#clip032)" style="stroke:#000000; stroke-linecap:round; stroke-linejoin:round; stroke-width:2; stroke-opacity:0.1; fill:none" points="1250.12,1486.45 1250.12,47.2441 "/>
<polyline clip-path="url(#clip032)" style="stroke:#000000; stroke-linecap:round; stroke-linejoin:round; stroke-width:2; stroke-opacity:0.1; fill:none" points="1650.61,1486.45 1650.61,47.2441 "/>
<polyline clip-path="url(#clip032)" style="stroke:#000000; stroke-linecap:round; stroke-linejoin:round; stroke-width:2; stroke-opacity:0.1; fill:none" points="2051.09,1486.45 2051.09,47.2441 "/>
<polyline clip-path="url(#clip030)" style="stroke:#000000; stroke-linecap:round; stroke-linejoin:round; stroke-width:4; stroke-opacity:1; fill:none" points="147.478,1486.45 2352.76,1486.45 "/>
<polyline clip-path="url(#clip030)" style="stroke:#000000; stroke-linecap:round; stroke-linejoin:round; stroke-width:4; stroke-opacity:1; fill:none" points="449.139,1486.45 449.139,1467.55 "/>
<polyline clip-path="url(#clip030)" style="stroke:#000000; stroke-linecap:round; stroke-linejoin:round; stroke-width:4; stroke-opacity:1; fill:none" points="849.628,1486.45 849.628,1467.55 "/>
<polyline clip-path="url(#clip030)" style="stroke:#000000; stroke-linecap:round; stroke-linejoin:round; stroke-width:4; stroke-opacity:1; fill:none" points="1250.12,1486.45 1250.12,1467.55 "/>
<polyline clip-path="url(#clip030)" style="stroke:#000000; stroke-linecap:round; stroke-linejoin:round; stroke-width:4; stroke-opacity:1; fill:none" points="1650.61,1486.45 1650.61,1467.55 "/>
<polyline clip-path="url(#clip030)" style="stroke:#000000; stroke-linecap:round; stroke-linejoin:round; stroke-width:4; stroke-opacity:1; fill:none" points="2051.09,1486.45 2051.09,1467.55 "/>
<path clip-path="url(#clip030)" d="M395.667 1532.02 L425.343 1532.02 L425.343 1535.95 L395.667 1535.95 L395.667 1532.02 Z" fill="#000000" fill-rule="nonzero" fill-opacity="1" /><path clip-path="url(#clip030)" d="M436.246 1544.91 L443.885 1544.91 L443.885 1518.55 L435.575 1520.21 L435.575 1515.95 L443.838 1514.29 L448.514 1514.29 L448.514 1544.91 L456.153 1544.91 L456.153 1548.85 L436.246 1548.85 L436.246 1544.91 Z" fill="#000000" fill-rule="nonzero" fill-opacity="1" /><path clip-path="url(#clip030)" d="M465.598 1542.97 L470.482 1542.97 L470.482 1548.85 L465.598 1548.85 L465.598 1542.97 Z" fill="#000000" fill-rule="nonzero" fill-opacity="1" /><path clip-path="url(#clip030)" d="M490.667 1517.37 Q487.056 1517.37 485.227 1520.93 Q483.422 1524.47 483.422 1531.6 Q483.422 1538.71 485.227 1542.27 Q487.056 1545.82 490.667 1545.82 Q494.301 1545.82 496.107 1542.27 Q497.935 1538.71 497.935 1531.6 Q497.935 1524.47 496.107 1520.93 Q494.301 1517.37 490.667 1517.37 M490.667 1513.66 Q496.477 1513.66 499.533 1518.27 Q502.611 1522.85 502.611 1531.6 Q502.611 1540.33 499.533 1544.94 Q496.477 1549.52 490.667 1549.52 Q484.857 1549.52 481.778 1544.94 Q478.723 1540.33 478.723 1531.6 Q478.723 1522.85 481.778 1518.27 Q484.857 1513.66 490.667 1513.66 Z" fill="#000000" fill-rule="nonzero" fill-opacity="1" /><path clip-path="url(#clip030)" d="M796.654 1532.02 L826.33 1532.02 L826.33 1535.95 L796.654 1535.95 L796.654 1532.02 Z" fill="#000000" fill-rule="nonzero" fill-opacity="1" /><path clip-path="url(#clip030)" d="M846.422 1517.37 Q842.811 1517.37 840.982 1520.93 Q839.177 1524.47 839.177 1531.6 Q839.177 1538.71 840.982 1542.27 Q842.811 1545.82 846.422 1545.82 Q850.056 1545.82 851.862 1542.27 Q853.691 1538.71 853.691 1531.6 Q853.691 1524.47 851.862 1520.93 Q850.056 1517.37 846.422 1517.37 M846.422 1513.66 Q852.232 1513.66 855.288 1518.27 Q858.367 1522.85 858.367 1531.6 Q858.367 1540.33 855.288 1544.94 Q852.232 1549.52 846.422 1549.52 Q840.612 1549.52 837.533 1544.94 Q834.478 1540.33 834.478 1531.6 Q834.478 1522.85 837.533 1518.27 Q840.612 1513.66 846.422 1513.66 Z" fill="#000000" fill-rule="nonzero" fill-opacity="1" /><path clip-path="url(#clip030)" d="M866.584 1542.97 L871.468 1542.97 L871.468 1548.85 L866.584 1548.85 L866.584 1542.97 Z" fill="#000000" fill-rule="nonzero" fill-opacity="1" /><path clip-path="url(#clip030)" d="M881.7 1514.29 L900.056 1514.29 L900.056 1518.22 L885.982 1518.22 L885.982 1526.7 Q887.001 1526.35 888.019 1526.19 Q889.038 1526 890.056 1526 Q895.843 1526 899.223 1529.17 Q902.602 1532.34 902.602 1537.76 Q902.602 1543.34 899.13 1546.44 Q895.658 1549.52 889.339 1549.52 Q887.163 1549.52 884.894 1549.15 Q882.649 1548.78 880.241 1548.04 L880.241 1543.34 Q882.325 1544.47 884.547 1545.03 Q886.769 1545.58 889.246 1545.58 Q893.251 1545.58 895.589 1543.48 Q897.927 1541.37 897.927 1537.76 Q897.927 1534.15 895.589 1532.04 Q893.251 1529.94 889.246 1529.94 Q887.371 1529.94 885.496 1530.35 Q883.644 1530.77 881.7 1531.65 L881.7 1514.29 Z" fill="#000000" fill-rule="nonzero" fill-opacity="1" /><path clip-path="url(#clip030)" d="M1227.5 1517.37 Q1223.89 1517.37 1222.06 1520.93 Q1220.26 1524.47 1220.26 1531.6 Q1220.26 1538.71 1222.06 1542.27 Q1223.89 1545.82 1227.5 1545.82 Q1231.14 1545.82 1232.94 1542.27 Q1234.77 1538.71 1234.77 1531.6 Q1234.77 1524.47 1232.94 1520.93 Q1231.14 1517.37 1227.5 1517.37 M1227.5 1513.66 Q1233.31 1513.66 1236.37 1518.27 Q1239.45 1522.85 1239.45 1531.6 Q1239.45 1540.33 1236.37 1544.94 Q1233.31 1549.52 1227.5 1549.52 Q1221.69 1549.52 1218.61 1544.94 Q1215.56 1540.33 1215.56 1531.6 Q1215.56 1522.85 1218.61 1518.27 Q1221.69 1513.66 1227.5 1513.66 Z" fill="#000000" fill-rule="nonzero" fill-opacity="1" /><path clip-path="url(#clip030)" d="M1247.66 1542.97 L1252.55 1542.97 L1252.55 1548.85 L1247.66 1548.85 L1247.66 1542.97 Z" fill="#000000" fill-rule="nonzero" fill-opacity="1" /><path clip-path="url(#clip030)" d="M1272.73 1517.37 Q1269.12 1517.37 1267.29 1520.93 Q1265.49 1524.47 1265.49 1531.6 Q1265.49 1538.71 1267.29 1542.27 Q1269.12 1545.82 1272.73 1545.82 Q1276.37 1545.82 1278.17 1542.27 Q1280 1538.71 1280 1531.6 Q1280 1524.47 1278.17 1520.93 Q1276.37 1517.37 1272.73 1517.37 M1272.73 1513.66 Q1278.54 1513.66 1281.6 1518.27 Q1284.68 1522.85 1284.68 1531.6 Q1284.68 1540.33 1281.6 1544.94 Q1278.54 1549.52 1272.73 1549.52 Q1266.92 1549.52 1263.84 1544.94 Q1260.79 1540.33 1260.79 1531.6 Q1260.79 1522.85 1263.84 1518.27 Q1266.92 1513.66 1272.73 1513.66 Z" fill="#000000" fill-rule="nonzero" fill-opacity="1" /><path clip-path="url(#clip030)" d="M1628.49 1517.37 Q1624.88 1517.37 1623.05 1520.93 Q1621.24 1524.47 1621.24 1531.6 Q1621.24 1538.71 1623.05 1542.27 Q1624.88 1545.82 1628.49 1545.82 Q1632.12 1545.82 1633.93 1542.27 Q1635.76 1538.71 1635.76 1531.6 Q1635.76 1524.47 1633.93 1520.93 Q1632.12 1517.37 1628.49 1517.37 M1628.49 1513.66 Q1634.3 1513.66 1637.35 1518.27 Q1640.43 1522.85 1640.43 1531.6 Q1640.43 1540.33 1637.35 1544.94 Q1634.3 1549.52 1628.49 1549.52 Q1622.68 1549.52 1619.6 1544.94 Q1616.54 1540.33 1616.54 1531.6 Q1616.54 1522.85 1619.6 1518.27 Q1622.68 1513.66 1628.49 1513.66 Z" fill="#000000" fill-rule="nonzero" fill-opacity="1" /><path clip-path="url(#clip030)" d="M1648.65 1542.97 L1653.53 1542.97 L1653.53 1548.85 L1648.65 1548.85 L1648.65 1542.97 Z" fill="#000000" fill-rule="nonzero" fill-opacity="1" /><path clip-path="url(#clip030)" d="M1663.77 1514.29 L1682.12 1514.29 L1682.12 1518.22 L1668.05 1518.22 L1668.05 1526.7 Q1669.07 1526.35 1670.08 1526.19 Q1671.1 1526 1672.12 1526 Q1677.91 1526 1681.29 1529.17 Q1684.67 1532.34 1684.67 1537.76 Q1684.67 1543.34 1681.2 1546.44 Q1677.72 1549.52 1671.4 1549.52 Q1669.23 1549.52 1666.96 1549.15 Q1664.71 1548.78 1662.31 1548.04 L1662.31 1543.34 Q1664.39 1544.47 1666.61 1545.03 Q1668.83 1545.58 1671.31 1545.58 Q1675.32 1545.58 1677.65 1543.48 Q1679.99 1541.37 1679.99 1537.76 Q1679.99 1534.15 1677.65 1532.04 Q1675.32 1529.94 1671.31 1529.94 Q1669.44 1529.94 1667.56 1530.35 Q1665.71 1530.77 1663.77 1531.65 L1663.77 1514.29 Z" fill="#000000" fill-rule="nonzero" fill-opacity="1" /><path clip-path="url(#clip030)" d="M2018.25 1544.91 L2025.89 1544.91 L2025.89 1518.55 L2017.58 1520.21 L2017.58 1515.95 L2025.84 1514.29 L2030.52 1514.29 L2030.52 1544.91 L2038.15 1544.91 L2038.15 1548.85 L2018.25 1548.85 L2018.25 1544.91 Z" fill="#000000" fill-rule="nonzero" fill-opacity="1" /><path clip-path="url(#clip030)" d="M2047.6 1542.97 L2052.48 1542.97 L2052.48 1548.85 L2047.6 1548.85 L2047.6 1542.97 Z" fill="#000000" fill-rule="nonzero" fill-opacity="1" /><path clip-path="url(#clip030)" d="M2072.67 1517.37 Q2069.06 1517.37 2067.23 1520.93 Q2065.42 1524.47 2065.42 1531.6 Q2065.42 1538.71 2067.23 1542.27 Q2069.06 1545.82 2072.67 1545.82 Q2076.3 1545.82 2078.11 1542.27 Q2079.94 1538.71 2079.94 1531.6 Q2079.94 1524.47 2078.11 1520.93 Q2076.3 1517.37 2072.67 1517.37 M2072.67 1513.66 Q2078.48 1513.66 2081.53 1518.27 Q2084.61 1522.85 2084.61 1531.6 Q2084.61 1540.33 2081.53 1544.94 Q2078.48 1549.52 2072.67 1549.52 Q2066.86 1549.52 2063.78 1544.94 Q2060.72 1540.33 2060.72 1531.6 Q2060.72 1522.85 2063.78 1518.27 Q2066.86 1513.66 2072.67 1513.66 Z" fill="#000000" fill-rule="nonzero" fill-opacity="1" /><polyline clip-path="url(#clip032)" style="stroke:#000000; stroke-linecap:round; stroke-linejoin:round; stroke-width:2; stroke-opacity:0.1; fill:none" points="147.478,1289.58 2352.76,1289.58 "/>
<polyline clip-path="url(#clip032)" style="stroke:#000000; stroke-linecap:round; stroke-linejoin:round; stroke-width:2; stroke-opacity:0.1; fill:none" points="147.478,1028.21 2352.76,1028.21 "/>
<polyline clip-path="url(#clip032)" style="stroke:#000000; stroke-linecap:round; stroke-linejoin:round; stroke-width:2; stroke-opacity:0.1; fill:none" points="147.478,766.846 2352.76,766.846 "/>
<polyline clip-path="url(#clip032)" style="stroke:#000000; stroke-linecap:round; stroke-linejoin:round; stroke-width:2; stroke-opacity:0.1; fill:none" points="147.478,505.478 2352.76,505.478 "/>
<polyline clip-path="url(#clip032)" style="stroke:#000000; stroke-linecap:round; stroke-linejoin:round; stroke-width:2; stroke-opacity:0.1; fill:none" points="147.478,244.111 2352.76,244.111 "/>
<polyline clip-path="url(#clip030)" style="stroke:#000000; stroke-linecap:round; stroke-linejoin:round; stroke-width:4; stroke-opacity:1; fill:none" points="147.478,1486.45 147.478,47.2441 "/>
<polyline clip-path="url(#clip030)" style="stroke:#000000; stroke-linecap:round; stroke-linejoin:round; stroke-width:4; stroke-opacity:1; fill:none" points="147.478,1289.58 166.376,1289.58 "/>
<polyline clip-path="url(#clip030)" style="stroke:#000000; stroke-linecap:round; stroke-linejoin:round; stroke-width:4; stroke-opacity:1; fill:none" points="147.478,1028.21 166.376,1028.21 "/>
<polyline clip-path="url(#clip030)" style="stroke:#000000; stroke-linecap:round; stroke-linejoin:round; stroke-width:4; stroke-opacity:1; fill:none" points="147.478,766.846 166.376,766.846 "/>
<polyline clip-path="url(#clip030)" style="stroke:#000000; stroke-linecap:round; stroke-linejoin:round; stroke-width:4; stroke-opacity:1; fill:none" points="147.478,505.478 166.376,505.478 "/>
<polyline clip-path="url(#clip030)" style="stroke:#000000; stroke-linecap:round; stroke-linejoin:round; stroke-width:4; stroke-opacity:1; fill:none" points="147.478,244.111 166.376,244.111 "/>
<path clip-path="url(#clip030)" d="M51.3625 1290.03 L81.0383 1290.03 L81.0383 1293.97 L51.3625 1293.97 L51.3625 1290.03 Z" fill="#000000" fill-rule="nonzero" fill-opacity="1" /><path clip-path="url(#clip030)" d="M95.1586 1302.93 L111.478 1302.93 L111.478 1306.86 L89.5336 1306.86 L89.5336 1302.93 Q92.1956 1300.17 96.7789 1295.54 Q101.385 1290.89 102.566 1289.55 Q104.811 1287.02 105.691 1285.29 Q106.594 1283.53 106.594 1281.84 Q106.594 1279.08 104.649 1277.35 Q102.728 1275.61 99.6261 1275.61 Q97.4271 1275.61 94.9734 1276.38 Q92.5428 1277.14 89.7651 1278.69 L89.7651 1273.97 Q92.5891 1272.83 95.0428 1272.25 Q97.4965 1271.68 99.5335 1271.68 Q104.904 1271.68 108.098 1274.36 Q111.293 1277.05 111.293 1281.54 Q111.293 1283.67 110.483 1285.59 Q109.696 1287.49 107.589 1290.08 Q107.01 1290.75 103.909 1293.97 Q100.807 1297.16 95.1586 1302.93 Z" fill="#000000" fill-rule="nonzero" fill-opacity="1" /><path clip-path="url(#clip030)" d="M50.9921 1028.66 L80.6679 1028.66 L80.6679 1032.6 L50.9921 1032.6 L50.9921 1028.66 Z" fill="#000000" fill-rule="nonzero" fill-opacity="1" /><path clip-path="url(#clip030)" d="M91.5706 1041.56 L99.2095 1041.56 L99.2095 1015.19 L90.8993 1016.86 L90.8993 1012.6 L99.1632 1010.93 L103.839 1010.93 L103.839 1041.56 L111.478 1041.56 L111.478 1045.49 L91.5706 1045.49 L91.5706 1041.56 Z" fill="#000000" fill-rule="nonzero" fill-opacity="1" /><path clip-path="url(#clip030)" d="M99.5335 752.645 Q95.9224 752.645 94.0937 756.209 Q92.2882 759.751 92.2882 766.881 Q92.2882 773.987 94.0937 777.552 Q95.9224 781.094 99.5335 781.094 Q103.168 781.094 104.973 777.552 Q106.802 773.987 106.802 766.881 Q106.802 759.751 104.973 756.209 Q103.168 752.645 99.5335 752.645 M99.5335 748.941 Q105.344 748.941 108.399 753.547 Q111.478 758.131 111.478 766.881 Q111.478 775.608 108.399 780.214 Q105.344 784.797 99.5335 784.797 Q93.7234 784.797 90.6447 780.214 Q87.5892 775.608 87.5892 766.881 Q87.5892 758.131 90.6447 753.547 Q93.7234 748.941 99.5335 748.941 Z" fill="#000000" fill-rule="nonzero" fill-opacity="1" /><path clip-path="url(#clip030)" d="M91.5706 518.823 L99.2095 518.823 L99.2095 492.458 L90.8993 494.124 L90.8993 489.865 L99.1632 488.198 L103.839 488.198 L103.839 518.823 L111.478 518.823 L111.478 522.758 L91.5706 522.758 L91.5706 518.823 Z" fill="#000000" fill-rule="nonzero" fill-opacity="1" /><path clip-path="url(#clip030)" d="M95.1586 257.456 L111.478 257.456 L111.478 261.391 L89.5336 261.391 L89.5336 257.456 Q92.1956 254.701 96.7789 250.071 Q101.385 245.419 102.566 244.076 Q104.811 241.553 105.691 239.817 Q106.594 238.058 106.594 236.368 Q106.594 233.613 104.649 231.877 Q102.728 230.141 99.6261 230.141 Q97.4271 230.141 94.9734 230.905 Q92.5428 231.669 89.7651 233.22 L89.7651 228.497 Q92.5891 227.363 95.0428 226.784 Q97.4965 226.206 99.5335 226.206 Q104.904 226.206 108.098 228.891 Q111.293 231.576 111.293 236.067 Q111.293 238.196 110.483 240.118 Q109.696 242.016 107.589 244.608 Q107.01 245.28 103.909 248.497 Q100.807 251.692 95.1586 257.456 Z" fill="#000000" fill-rule="nonzero" fill-opacity="1" /><path clip-path="url(#clip032)" d="M209.891 1445.72 L209.891 922.98 L482.224 311.38 L491.836 292.562 L520.511 249.75 L521.53 248.257 L524.31 244.301 L525.336 242.854 L525.629 242.445 L534.439 230.213 L537.804 225.978 L640.329 103.658 L688.387 87.9763 L2290.34 87.9763 L2290.34 610.711 L2018.01 1222.31 L2008.4 1241.13 L1979.72 1283.94 L1978.7 1285.44 L1975.92 1289.39 L1974.9 1290.84 L1974.61 1291.25 L1965.79 1303.48 L1962.43 1307.71 L1859.91 1430.03 L1811.85 1445.72 L209.891 1445.72 L209.891 1445.72  Z" fill="#009af9" fill-rule="evenodd" fill-opacity="1"/>
<polyline clip-path="url(#clip032)" style="stroke:#000000; stroke-linecap:round; stroke-linejoin:round; stroke-width:4; stroke-opacity:1; fill:none" points="209.891,1445.72 209.891,922.98 482.224,311.38 491.836,292.562 520.511,249.75 521.53,248.257 524.31,244.301 525.336,242.854 525.629,242.445 534.439,230.213 537.804,225.978 640.329,103.658 688.387,87.9763 2290.34,87.9763 2290.34,610.711 2018.01,1222.31 2008.4,1241.13 1979.72,1283.94 1978.7,1285.44 1975.92,1289.39 1974.9,1290.84 1974.61,1291.25 1965.79,1303.48 1962.43,1307.71 1859.91,1430.03 1811.85,1445.72 209.891,1445.72 "/>
<path clip-path="url(#clip032)" d="M209.903 1445.7 L209.903 922.964 L482.236 311.364 L491.847 292.545 L520.522 249.733 L521.518 248.273 L524.299 244.318 L525.324 242.871 L525.617 242.461 L534.428 230.229 L537.792 225.995 L640.317 103.675 L688.376 87.993 L2290.33 87.993 L2290.33 610.728 L2018 1222.33 L2008.39 1241.15 L1979.71 1283.96 L1978.72 1285.42 L1975.94 1289.37 L1974.91 1290.82 L1974.62 1291.23 L1965.81 1303.46 L1962.44 1307.7 L1859.92 1430.02 L1811.86 1445.7 L209.903 1445.7 L209.903 1445.7  Z" fill="#e26f46" fill-rule="evenodd" fill-opacity="1"/>
<polyline clip-path="url(#clip032)" style="stroke:#000000; stroke-linecap:round; stroke-linejoin:round; stroke-width:4; stroke-opacity:1; fill:none" points="209.903,1445.7 209.903,922.964 482.236,311.364 491.847,292.545 520.522,249.733 521.518,248.273 524.299,244.318 525.324,242.871 525.617,242.461 534.428,230.229 537.792,225.995 640.317,103.675 688.376,87.993 2290.33,87.993 2290.33,610.728 2018,1222.33 2008.39,1241.15 1979.71,1283.96 1978.72,1285.42 1975.94,1289.37 1974.91,1290.82 1974.62,1291.23 1965.81,1303.46 1962.44,1307.7 1859.92,1430.02 1811.86,1445.7 209.903,1445.7 "/>
<path clip-path="url(#clip032)" d="M209.943 1445.64 L209.943 922.908 L482.275 311.308 L491.887 292.489 L520.562 249.677 L521.549 248.229 L524.259 244.374 L525.284 242.926 L525.577 242.517 L534.388 230.285 L537.752 226.051 L640.277 103.731 L688.336 88.0487 L2290.29 88.0487 L2290.29 610.784 L2017.96 1222.38 L2008.35 1241.2 L1979.67 1284.01 L1978.68 1285.46 L1975.97 1289.32 L1974.95 1290.77 L1974.66 1291.17 L1965.85 1303.41 L1962.48 1307.64 L1859.96 1429.96 L1811.9 1445.64 L209.943 1445.64 L209.943 1445.64  Z" fill="#3da44d" fill-rule="evenodd" fill-opacity="1"/>
<polyline clip-path="url(#clip032)" style="stroke:#000000; stroke-linecap:round; stroke-linejoin:round; stroke-width:4; stroke-opacity:1; fill:none" points="209.943,1445.64 209.943,922.908 482.275,311.308 491.887,292.489 520.562,249.677 521.549,248.229 524.259,244.374 525.284,242.926 525.577,242.517 534.388,230.285 537.752,226.051 640.277,103.731 688.336,88.0487 2290.29,88.0487 2290.29,610.784 2017.96,1222.38 2008.35,1241.2 1979.67,1284.01 1978.68,1285.46 1975.97,1289.32 1974.95,1290.77 1974.66,1291.17 1965.85,1303.41 1962.48,1307.64 1859.96,1429.96 1811.9,1445.64 209.943,1445.64 "/>
<path clip-path="url(#clip032)" d="M210.074 1445.46 L210.074 922.722 L482.406 311.122 L492.018 292.304 L520.693 249.492 L521.654 248.08 L524.364 244.225 L525.153 243.112 L525.446 242.703 L534.257 230.471 L537.621 226.237 L640.146 103.917 L688.205 88.2346 L2290.16 88.2346 L2290.16 610.97 L2017.83 1222.57 L2008.22 1241.39 L1979.54 1284.2 L1978.58 1285.61 L1975.87 1289.47 L1975.08 1290.58 L1974.79 1290.99 L1965.98 1303.22 L1962.61 1307.46 L1860.09 1429.78 L1812.03 1445.46 L210.074 1445.46 L210.074 1445.46  Z" fill="#c271d2" fill-rule="evenodd" fill-opacity="1"/>
<polyline clip-path="url(#clip032)" style="stroke:#000000; stroke-linecap:round; stroke-linejoin:round; stroke-width:4; stroke-opacity:1; fill:none" points="210.074,1445.46 210.074,922.722 482.406,311.122 492.018,292.304 520.693,249.492 521.654,248.08 524.364,244.225 525.153,243.112 525.446,242.703 534.257,230.471 537.621,226.237 640.146,103.917 688.205,88.2346 2290.16,88.2346 2290.16,610.97 2017.83,1222.57 2008.22,1241.39 1979.54,1284.2 1978.58,1285.61 1975.87,1289.47 1975.08,1290.58 1974.79,1290.99 1965.98,1303.22 1962.61,1307.46 1860.09,1429.78 1812.03,1445.46 210.074,1445.46 "/>
<path clip-path="url(#clip032)" d="M210.512 1444.84 L210.512 922.104 L482.845 310.503 L492.456 291.685 L521.131 248.873 L522.092 247.462 L524.715 243.731 L525.008 243.321 L533.819 231.089 L537.183 226.855 L639.708 104.535 L687.767 88.8532 L2289.72 88.8532 L2289.72 611.588 L2017.39 1223.19 L2007.78 1242.01 L1979.1 1284.82 L1978.14 1286.23 L1975.52 1289.96 L1975.23 1290.37 L1966.42 1302.6 L1963.05 1306.84 L1860.53 1429.16 L1812.47 1444.84 L210.512 1444.84 L210.512 1444.84  Z" fill="#ac8d18" fill-rule="evenodd" fill-opacity="1"/>
<polyline clip-path="url(#clip032)" style="stroke:#000000; stroke-linecap:round; stroke-linejoin:round; stroke-width:4; stroke-opacity:1; fill:none" points="210.512,1444.84 210.512,922.104 482.845,310.503 492.456,291.685 521.131,248.873 522.092,247.462 524.715,243.731 525.008,243.321 533.819,231.089 537.183,226.855 639.708,104.535 687.767,88.8532 2289.72,88.8532 2289.72,611.588 2017.39,1223.19 2007.78,1242.01 1979.1,1284.82 1978.14,1286.23 1975.52,1289.96 1975.23,1290.37 1966.42,1302.6 1963.05,1306.84 1860.53,1429.16 1812.47,1444.84 210.512,1444.84 "/>
<path clip-path="url(#clip032)" d="M211.97 1442.77 L211.97 920.034 L484.302 308.433 L493.914 289.615 L522.589 246.803 L523.55 245.391 L532.361 233.159 L535.725 228.925 L638.25 106.605 L686.309 90.9232 L2288.26 90.9232 L2288.26 613.658 L2015.93 1225.26 L2006.32 1244.08 L1977.64 1286.89 L1976.68 1288.3 L1967.87 1300.53 L1964.51 1304.77 L1861.98 1427.09 L1813.92 1442.77 L211.97 1442.77 L211.97 1442.77  Z" fill="#00a9ad" fill-rule="evenodd" fill-opacity="1"/>
<polyline clip-path="url(#clip032)" style="stroke:#000000; stroke-linecap:round; stroke-linejoin:round; stroke-width:4; stroke-opacity:1; fill:none" points="211.97,1442.77 211.97,920.034 484.302,308.433 493.914,289.615 522.589,246.803 523.55,245.391 532.361,233.159 535.725,228.925 638.25,106.605 686.309,90.9232 2288.26,90.9232 2288.26,613.658 2015.93,1225.26 2006.32,1244.08 1977.64,1286.89 1976.68,1288.3 1967.87,1300.53 1964.51,1304.77 1861.98,1427.09 1813.92,1442.77 211.97,1442.77 "/>
<path clip-path="url(#clip032)" d="M216.856 1435.95 L216.856 913.212 L489.188 301.612 L498.8 282.793 L527.475 239.981 L530.839 235.747 L633.364 113.427 L681.423 97.7449 L2283.38 97.7449 L2283.38 620.48 L2011.05 1232.08 L2001.43 1250.9 L1972.76 1293.71 L1969.39 1297.94 L1866.87 1420.26 L1818.81 1435.95 L216.856 1435.95 L216.856 1435.95  Z" fill="#ed5d92" fill-rule="evenodd" fill-opacity="1"/>
<polyline clip-path="url(#clip032)" style="stroke:#000000; stroke-linecap:round; stroke-linejoin:round; stroke-width:4; stroke-opacity:1; fill:none" points="216.856,1435.95 216.856,913.212 489.188,301.612 498.8,282.793 527.475,239.981 530.839,235.747 633.364,113.427 681.423,97.7449 2283.38,97.7449 2283.38,620.48 2011.05,1232.08 2001.43,1250.9 1972.76,1293.71 1969.39,1297.94 1866.87,1420.26 1818.81,1435.95 216.856,1435.95 "/>
<path clip-path="url(#clip032)" d="M232.875 1412.42 L232.875 889.689 L505.208 278.089 L514.82 259.27 L617.345 136.95 L665.403 121.268 L2267.36 121.268 L2267.36 644.003 L1995.03 1255.6 L1985.41 1274.42 L1882.89 1396.74 L1834.83 1412.42 L232.875 1412.42 L232.875 1412.42  Z" fill="#c68125" fill-rule="evenodd" fill-opacity="1"/>
<polyline clip-path="url(#clip032)" style="stroke:#000000; stroke-linecap:round; stroke-linejoin:round; stroke-width:4; stroke-opacity:1; fill:none" points="232.875,1412.42 232.875,889.689 505.208,278.089 514.82,259.27 617.345,136.95 665.403,121.268 2267.36,121.268 2267.36,644.003 1995.03,1255.6 1985.41,1274.42 1882.89,1396.74 1834.83,1412.42 232.875,1412.42 "/>
<path clip-path="url(#clip032)" d="M288.944 1341.85 L288.944 819.12 L561.276 207.519 L609.335 191.837 L2211.29 191.837 L2211.29 714.572 L1938.96 1326.17 L1890.9 1341.85 L288.944 1341.85 L288.944 1341.85  Z" fill="#00a98d" fill-rule="evenodd" fill-opacity="1"/>
<polyline clip-path="url(#clip032)" style="stroke:#000000; stroke-linecap:round; stroke-linejoin:round; stroke-width:4; stroke-opacity:1; fill:none" points="288.944,1341.85 288.944,819.12 561.276,207.519 609.335,191.837 2211.29,191.837 2211.29,714.572 1938.96,1326.17 1890.9,1341.85 288.944,1341.85 "/>
<path clip-path="url(#clip032)" d="M449.139 1028.21 L449.139 505.478 L2051.09 505.478 L2051.09 1028.21 L449.139 1028.21 L449.139 1028.21  Z" fill="#8e971d" fill-rule="evenodd" fill-opacity="1"/>
<polyline clip-path="url(#clip032)" style="stroke:#000000; stroke-linecap:round; stroke-linejoin:round; stroke-width:4; stroke-opacity:1; fill:none" points="449.139,1028.21 449.139,505.478 2051.09,505.478 2051.09,1028.21 449.139,1028.21 "/>
</svg>
