<?xml version="1.0" encoding="utf-8"?>
<svg xmlns="http://www.w3.org/2000/svg" xmlns:xlink="http://www.w3.org/1999/xlink" width="600" height="400" viewBox="0 0 2400 1600">
<defs>
  <clipPath id="clip910">
    <rect x="0" y="0" width="2400" height="1600"/>
  </clipPath>
</defs>
<path clip-path="url(#clip910)" d="M0 1600 L2400 1600 L2400 0 L0 0  Z" fill="#ffffff" fill-rule="evenodd" fill-opacity="1"/>
<defs>
  <clipPath id="clip911">
    <rect x="480" y="0" width="1681" height="1600"/>
  </clipPath>
</defs>
<path clip-path="url(#clip910)" d="M193.936 1486.45 L2352.76 1486.45 L2352.76 47.2441 L193.936 47.2441  Z" fill="#ffffff" fill-rule="evenodd" fill-opacity="1"/>
<defs>
  <clipPath id="clip912">
    <rect x="193" y="47" width="2160" height="1440"/>
  </clipPath>
</defs>
<polyline clip-path="url(#clip912)" style="stroke:#000000; stroke-linecap:round; stroke-linejoin:round; stroke-width:2; stroke-opacity:0.1; fill:none" points="486.469,1486.45 486.469,47.2441 "/>
<polyline clip-path="url(#clip912)" style="stroke:#000000; stroke-linecap:round; stroke-linejoin:round; stroke-width:2; stroke-opacity:0.1; fill:none" points="949.338,1486.45 949.338,47.2441 "/>
<polyline clip-path="url(#clip912)" style="stroke:#000000; stroke-linecap:round; stroke-linejoin:round; stroke-width:2; stroke-opacity:0.1; fill:none" points="1412.21,1486.45 1412.21,47.2441 "/>
<polyline clip-path="url(#clip912)" style="stroke:#000000; stroke-linecap:round; stroke-linejoin:round; stroke-width:2; stroke-opacity:0.1; fill:none" points="1875.08,1486.45 1875.08,47.2441 "/>
<polyline clip-path="url(#clip912)" style="stroke:#000000; stroke-linecap:round; stroke-linejoin:round; stroke-width:2; stroke-opacity:0.1; fill:none" points="2337.94,1486.45 2337.94,47.2441 "/>
<polyline clip-path="url(#clip910)" style="stroke:#000000; stroke-linecap:round; stroke-linejoin:round; stroke-width:4; stroke-opacity:1; fill:none" points="193.936,1486.45 2352.76,1486.45 "/>
<polyline clip-path="url(#clip910)" style="stroke:#000000; stroke-linecap:round; stroke-linejoin:round; stroke-width:4; stroke-opacity:1; fill:none" points="486.469,1486.45 486.469,1467.55 "/>
<polyline clip-path="url(#clip910)" style="stroke:#000000; stroke-linecap:round; stroke-linejoin:round; stroke-width:4; stroke-opacity:1; fill:none" points="949.338,1486.45 949.338,1467.55 "/>
<polyline clip-path="url(#clip910)" style="stroke:#000000; stroke-linecap:round; stroke-linejoin:round; stroke-width:4; stroke-opacity:1; fill:none" points="1412.21,1486.45 1412.21,1467.55 "/>
<polyline clip-path="url(#clip910)" style="stroke:#000000; stroke-linecap:round; stroke-linejoin:round; stroke-width:4; stroke-opacity:1; fill:none" points="1875.08,1486.45 1875.08,1467.55 "/>
<polyline clip-path="url(#clip910)" style="stroke:#000000; stroke-linecap:round; stroke-linejoin:round; stroke-width:4; stroke-opacity:1; fill:none" points="2337.94,1486.45 2337.94,1467.55 "/>
<path clip-path="url(#clip910)" d="M456.411 1532.02 L486.087 1532.02 L486.087 1535.95 L456.411 1535.95 L456.411 1532.02 Z" fill="#000000" fill-rule="nonzero" fill-opacity="1" /><path clip-path="url(#clip910)" d="M500.207 1544.91 L516.527 1544.91 L516.527 1548.85 L494.582 1548.85 L494.582 1544.91 Q497.244 1542.16 501.828 1537.53 Q506.434 1532.88 507.615 1531.53 Q509.86 1529.01 510.74 1527.27 Q511.643 1525.51 511.643 1523.82 Q511.643 1521.07 509.698 1519.33 Q507.777 1517.6 504.675 1517.6 Q502.476 1517.6 500.022 1518.36 Q497.592 1519.13 494.814 1520.68 L494.814 1515.95 Q497.638 1514.82 500.092 1514.24 Q502.545 1513.66 504.582 1513.66 Q509.953 1513.66 513.147 1516.35 Q516.342 1519.03 516.342 1523.52 Q516.342 1525.65 515.531 1527.57 Q514.744 1529.47 512.638 1532.07 Q512.059 1532.74 508.957 1535.95 Q505.856 1539.15 500.207 1544.91 Z" fill="#000000" fill-rule="nonzero" fill-opacity="1" /><path clip-path="url(#clip910)" d="M919.095 1532.02 L948.771 1532.02 L948.771 1535.95 L919.095 1535.95 L919.095 1532.02 Z" fill="#000000" fill-rule="nonzero" fill-opacity="1" /><path clip-path="url(#clip910)" d="M959.673 1544.91 L967.312 1544.91 L967.312 1518.55 L959.002 1520.21 L959.002 1515.95 L967.266 1514.29 L971.942 1514.29 L971.942 1544.91 L979.581 1544.91 L979.581 1548.85 L959.673 1548.85 L959.673 1544.91 Z" fill="#000000" fill-rule="nonzero" fill-opacity="1" /><path clip-path="url(#clip910)" d="M1412.21 1517.37 Q1408.6 1517.37 1406.77 1520.93 Q1404.96 1524.47 1404.96 1531.6 Q1404.96 1538.71 1406.77 1542.27 Q1408.6 1545.82 1412.21 1545.82 Q1415.84 1545.82 1417.65 1542.27 Q1419.48 1538.71 1419.48 1531.6 Q1419.48 1524.47 1417.65 1520.93 Q1415.84 1517.37 1412.21 1517.37 M1412.21 1513.66 Q1418.02 1513.66 1421.07 1518.27 Q1424.15 1522.85 1424.15 1531.6 Q1424.15 1540.33 1421.07 1544.94 Q1418.02 1549.52 1412.21 1549.52 Q1406.4 1549.52 1403.32 1544.94 Q1400.26 1540.33 1400.26 1531.6 Q1400.26 1522.85 1403.32 1518.27 Q1406.4 1513.66 1412.21 1513.66 Z" fill="#000000" fill-rule="nonzero" fill-opacity="1" /><path clip-path="url(#clip910)" d="M1865.46 1544.91 L1873.1 1544.91 L1873.1 1518.55 L1864.79 1520.21 L1864.79 1515.95 L1873.05 1514.29 L1877.73 1514.29 L1877.73 1544.91 L1885.36 1544.91 L1885.36 1548.85 L1865.46 1548.85 L1865.46 1544.91 Z" fill="#000000" fill-rule="nonzero" fill-opacity="1" /><path clip-path="url(#clip910)" d="M2332.6 1544.91 L2348.92 1544.91 L2348.92 1548.85 L2326.97 1548.85 L2326.97 1544.91 Q2329.63 1542.16 2334.22 1537.53 Q2338.82 1532.88 2340 1531.53 Q2342.25 1529.01 2343.13 1527.27 Q2344.03 1525.51 2344.03 1523.82 Q2344.03 1521.07 2342.09 1519.33 Q2340.17 1517.6 2337.06 1517.6 Q2334.87 1517.6 2332.41 1518.36 Q2329.98 1519.13 2327.2 1520.68 L2327.2 1515.95 Q2330.03 1514.82 2332.48 1514.24 Q2334.93 1513.66 2336.97 1513.66 Q2342.34 1513.66 2345.54 1516.35 Q2348.73 1519.03 2348.73 1523.52 Q2348.73 1525.65 2347.92 1527.57 Q2347.13 1529.47 2345.03 1532.07 Q2344.45 1532.74 2341.35 1535.95 Q2338.25 1539.15 2332.6 1544.91 Z" fill="#000000" fill-rule="nonzero" fill-opacity="1" /><polyline clip-path="url(#clip912)" style="stroke:#000000; stroke-linecap:round; stroke-linejoin:round; stroke-width:2; stroke-opacity:0.1; fill:none" points="193.936,1341.27 2352.76,1341.27 "/>
<polyline clip-path="url(#clip912)" style="stroke:#000000; stroke-linecap:round; stroke-linejoin:round; stroke-width:2; stroke-opacity:0.1; fill:none" points="193.936,1080.17 2352.76,1080.17 "/>
<polyline clip-path="url(#clip912)" style="stroke:#000000; stroke-linecap:round; stroke-linejoin:round; stroke-width:2; stroke-opacity:0.1; fill:none" points="193.936,819.067 2352.76,819.067 "/>
<polyline clip-path="url(#clip912)" style="stroke:#000000; stroke-linecap:round; stroke-linejoin:round; stroke-width:2; stroke-opacity:0.1; fill:none" points="193.936,557.963 2352.76,557.963 "/>
<polyline clip-path="url(#clip912)" style="stroke:#000000; stroke-linecap:round; stroke-linejoin:round; stroke-width:2; stroke-opacity:0.1; fill:none" points="193.936,296.859 2352.76,296.859 "/>
<polyline clip-path="url(#clip910)" style="stroke:#000000; stroke-linecap:round; stroke-linejoin:round; stroke-width:4; stroke-opacity:1; fill:none" points="193.936,1486.45 193.936,47.2441 "/>
<polyline clip-path="url(#clip910)" style="stroke:#000000; stroke-linecap:round; stroke-linejoin:round; stroke-width:4; stroke-opacity:1; fill:none" points="193.936,1341.27 212.834,1341.27 "/>
<polyline clip-path="url(#clip910)" style="stroke:#000000; stroke-linecap:round; stroke-linejoin:round; stroke-width:4; stroke-opacity:1; fill:none" points="193.936,1080.17 212.834,1080.17 "/>
<polyline clip-path="url(#clip910)" style="stroke:#000000; stroke-linecap:round; stroke-linejoin:round; stroke-width:4; stroke-opacity:1; fill:none" points="193.936,819.067 212.834,819.067 "/>
<polyline clip-path="url(#clip910)" style="stroke:#000000; stroke-linecap:round; stroke-linejoin:round; stroke-width:4; stroke-opacity:1; fill:none" points="193.936,557.963 212.834,557.963 "/>
<polyline clip-path="url(#clip910)" style="stroke:#000000; stroke-linecap:round; stroke-linejoin:round; stroke-width:4; stroke-opacity:1; fill:none" points="193.936,296.859 212.834,296.859 "/>
<path clip-path="url(#clip910)" d="M51.9875 1341.73 L81.6633 1341.73 L81.6633 1345.66 L51.9875 1345.66 L51.9875 1341.73 Z" fill="#000000" fill-rule="nonzero" fill-opacity="1" /><path clip-path="url(#clip910)" d="M92.566 1354.62 L100.205 1354.62 L100.205 1328.25 L91.8947 1329.92 L91.8947 1325.66 L100.159 1323.99 L104.834 1323.99 L104.834 1354.62 L112.473 1354.62 L112.473 1358.55 L92.566 1358.55 L92.566 1354.62 Z" fill="#000000" fill-rule="nonzero" fill-opacity="1" /><path clip-path="url(#clip910)" d="M121.918 1352.67 L126.802 1352.67 L126.802 1358.55 L121.918 1358.55 L121.918 1352.67 Z" fill="#000000" fill-rule="nonzero" fill-opacity="1" /><path clip-path="url(#clip910)" d="M137.033 1323.99 L155.39 1323.99 L155.39 1327.93 L141.316 1327.93 L141.316 1336.4 Q142.334 1336.05 143.353 1335.89 Q144.371 1335.71 145.39 1335.71 Q151.177 1335.71 154.556 1338.88 Q157.936 1342.05 157.936 1347.47 Q157.936 1353.04 154.464 1356.15 Q150.992 1359.23 144.672 1359.23 Q142.496 1359.23 140.228 1358.86 Q137.982 1358.48 135.575 1357.74 L135.575 1353.04 Q137.658 1354.18 139.881 1354.73 Q142.103 1355.29 144.58 1355.29 Q148.584 1355.29 150.922 1353.18 Q153.26 1351.08 153.26 1347.47 Q153.26 1343.86 150.922 1341.75 Q148.584 1339.64 144.58 1339.64 Q142.705 1339.64 140.83 1340.06 Q138.978 1340.48 137.033 1341.36 L137.033 1323.99 Z" fill="#000000" fill-rule="nonzero" fill-opacity="1" /><path clip-path="url(#clip910)" d="M50.9921 1080.62 L80.6679 1080.62 L80.6679 1084.56 L50.9921 1084.56 L50.9921 1080.62 Z" fill="#000000" fill-rule="nonzero" fill-opacity="1" /><path clip-path="url(#clip910)" d="M91.5706 1093.52 L99.2095 1093.52 L99.2095 1067.15 L90.8993 1068.82 L90.8993 1064.56 L99.1632 1062.89 L103.839 1062.89 L103.839 1093.52 L111.478 1093.52 L111.478 1097.45 L91.5706 1097.45 L91.5706 1093.52 Z" fill="#000000" fill-rule="nonzero" fill-opacity="1" /><path clip-path="url(#clip910)" d="M120.922 1091.57 L125.807 1091.57 L125.807 1097.45 L120.922 1097.45 L120.922 1091.57 Z" fill="#000000" fill-rule="nonzero" fill-opacity="1" /><path clip-path="url(#clip910)" d="M145.992 1065.97 Q142.381 1065.97 140.552 1069.53 Q138.746 1073.08 138.746 1080.21 Q138.746 1087.31 140.552 1090.88 Q142.381 1094.42 145.992 1094.42 Q149.626 1094.42 151.431 1090.88 Q153.26 1087.31 153.26 1080.21 Q153.26 1073.08 151.431 1069.53 Q149.626 1065.97 145.992 1065.97 M145.992 1062.27 Q151.802 1062.27 154.857 1066.87 Q157.936 1071.46 157.936 1080.21 Q157.936 1088.93 154.857 1093.54 Q151.802 1098.12 145.992 1098.12 Q140.181 1098.12 137.103 1093.54 Q134.047 1088.93 134.047 1080.21 Q134.047 1071.46 137.103 1066.87 Q140.181 1062.27 145.992 1062.27 Z" fill="#000000" fill-rule="nonzero" fill-opacity="1" /><path clip-path="url(#clip910)" d="M51.9875 819.518 L81.6633 819.518 L81.6633 823.453 L51.9875 823.453 L51.9875 819.518 Z" fill="#000000" fill-rule="nonzero" fill-opacity="1" /><path clip-path="url(#clip910)" d="M101.756 804.865 Q98.1447 804.865 96.316 808.43 Q94.5104 811.972 94.5104 819.101 Q94.5104 826.208 96.316 829.773 Q98.1447 833.314 101.756 833.314 Q105.39 833.314 107.196 829.773 Q109.024 826.208 109.024 819.101 Q109.024 811.972 107.196 808.43 Q105.39 804.865 101.756 804.865 M101.756 801.162 Q107.566 801.162 110.621 805.768 Q113.7 810.351 113.7 819.101 Q113.7 827.828 110.621 832.435 Q107.566 837.018 101.756 837.018 Q95.9456 837.018 92.8669 832.435 Q89.8114 827.828 89.8114 819.101 Q89.8114 810.351 92.8669 805.768 Q95.9456 801.162 101.756 801.162 Z" fill="#000000" fill-rule="nonzero" fill-opacity="1" /><path clip-path="url(#clip910)" d="M121.918 830.467 L126.802 830.467 L126.802 836.347 L121.918 836.347 L121.918 830.467 Z" fill="#000000" fill-rule="nonzero" fill-opacity="1" /><path clip-path="url(#clip910)" d="M137.033 801.787 L155.39 801.787 L155.39 805.722 L141.316 805.722 L141.316 814.194 Q142.334 813.847 143.353 813.685 Q144.371 813.5 145.39 813.5 Q151.177 813.5 154.556 816.671 Q157.936 819.842 157.936 825.259 Q157.936 830.838 154.464 833.939 Q150.992 837.018 144.672 837.018 Q142.496 837.018 140.228 836.648 Q137.982 836.277 135.575 835.537 L135.575 830.838 Q137.658 831.972 139.881 832.527 Q142.103 833.083 144.58 833.083 Q148.584 833.083 150.922 830.976 Q153.26 828.87 153.26 825.259 Q153.26 821.648 150.922 819.541 Q148.584 817.435 144.58 817.435 Q142.705 817.435 140.83 817.851 Q138.978 818.268 137.033 819.148 L137.033 801.787 Z" fill="#000000" fill-rule="nonzero" fill-opacity="1" /><path clip-path="url(#clip910)" d="M100.76 543.762 Q97.1493 543.762 95.3206 547.326 Q93.515 550.868 93.515 557.998 Q93.515 565.104 95.3206 568.669 Q97.1493 572.211 100.76 572.211 Q104.395 572.211 106.2 568.669 Q108.029 565.104 108.029 557.998 Q108.029 550.868 106.2 547.326 Q104.395 543.762 100.76 543.762 M100.76 540.058 Q106.571 540.058 109.626 544.664 Q112.705 549.248 112.705 557.998 Q112.705 566.725 109.626 571.331 Q106.571 575.914 100.76 575.914 Q94.9502 575.914 91.8715 571.331 Q88.816 566.725 88.816 557.998 Q88.816 549.248 91.8715 544.664 Q94.9502 540.058 100.76 540.058 Z" fill="#000000" fill-rule="nonzero" fill-opacity="1" /><path clip-path="url(#clip910)" d="M120.922 569.363 L125.807 569.363 L125.807 575.243 L120.922 575.243 L120.922 569.363 Z" fill="#000000" fill-rule="nonzero" fill-opacity="1" /><path clip-path="url(#clip910)" d="M145.992 543.762 Q142.381 543.762 140.552 547.326 Q138.746 550.868 138.746 557.998 Q138.746 565.104 140.552 568.669 Q142.381 572.211 145.992 572.211 Q149.626 572.211 151.431 568.669 Q153.26 565.104 153.26 557.998 Q153.26 550.868 151.431 547.326 Q149.626 543.762 145.992 543.762 M145.992 540.058 Q151.802 540.058 154.857 544.664 Q157.936 549.248 157.936 557.998 Q157.936 566.725 154.857 571.331 Q151.802 575.914 145.992 575.914 Q140.181 575.914 137.103 571.331 Q134.047 566.725 134.047 557.998 Q134.047 549.248 137.103 544.664 Q140.181 540.058 145.992 540.058 Z" fill="#000000" fill-rule="nonzero" fill-opacity="1" /><path clip-path="url(#clip910)" d="M101.756 282.658 Q98.1447 282.658 96.316 286.223 Q94.5104 289.764 94.5104 296.894 Q94.5104 304 96.316 307.565 Q98.1447 311.107 101.756 311.107 Q105.39 311.107 107.196 307.565 Q109.024 304 109.024 296.894 Q109.024 289.764 107.196 286.223 Q105.39 282.658 101.756 282.658 M101.756 278.954 Q107.566 278.954 110.621 283.561 Q113.7 288.144 113.7 296.894 Q113.7 305.621 110.621 310.227 Q107.566 314.811 101.756 314.811 Q95.9456 314.811 92.8669 310.227 Q89.8114 305.621 89.8114 296.894 Q89.8114 288.144 92.8669 283.561 Q95.9456 278.954 101.756 278.954 Z" fill="#000000" fill-rule="nonzero" fill-opacity="1" /><path clip-path="url(#clip910)" d="M121.918 308.26 L126.802 308.26 L126.802 314.139 L121.918 314.139 L121.918 308.26 Z" fill="#000000" fill-rule="nonzero" fill-opacity="1" /><path clip-path="url(#clip910)" d="M137.033 279.579 L155.39 279.579 L155.39 283.514 L141.316 283.514 L141.316 291.987 Q142.334 291.639 143.353 291.477 Q144.371 291.292 145.39 291.292 Q151.177 291.292 154.556 294.463 Q157.936 297.635 157.936 303.051 Q157.936 308.63 154.464 311.732 Q150.992 314.811 144.672 314.811 Q142.496 314.811 140.228 314.44 Q137.982 314.07 135.575 313.329 L135.575 308.63 Q137.658 309.764 139.881 310.32 Q142.103 310.875 144.58 310.875 Q148.584 310.875 150.922 308.769 Q153.26 306.662 153.26 303.051 Q153.26 299.44 150.922 297.334 Q148.584 295.227 144.58 295.227 Q142.705 295.227 140.83 295.644 Q138.978 296.061 137.033 296.94 L137.033 279.579 Z" fill="#000000" fill-rule="nonzero" fill-opacity="1" /><path clip-path="url(#clip912)" d="M532.756 1445.72 L579.043 296.859 L2199.08 192.418 L2291.66 714.625 L1828.79 1132.39 L532.756 1445.72 L532.756 1445.72  Z" fill="#0000ff" fill-rule="evenodd" fill-opacity="0.2"/>
<polyline clip-path="url(#clip912)" style="stroke:#000000; stroke-linecap:round; stroke-linejoin:round; stroke-width:4; stroke-opacity:0.2; fill:none" points="532.756,1445.72 579.043,296.859 2199.08,192.418 2291.66,714.625 1828.79,1132.39 532.756,1445.72 "/>
<path clip-path="url(#clip912)" d="M255.035 1132.39 L1041.91 140.197 L1458.49 87.9763 L2013.94 505.742 L2245.37 1184.61 L255.035 1132.39 L255.035 1132.39  Z" fill="#ff0000" fill-rule="evenodd" fill-opacity="0.2"/>
<polyline clip-path="url(#clip912)" style="stroke:#000000; stroke-linecap:round; stroke-linejoin:round; stroke-width:4; stroke-opacity:0.2; fill:none" points="255.035,1132.39 1041.91,140.197 1458.49,87.9763 2013.94,505.742 2245.37,1184.61 255.035,1132.39 "/>
<path clip-path="url(#clip912)" d="M255.035 1132.39 L579.043 296.859 L1041.91 140.197 L1458.49 87.9763 L2199.08 192.418 L2291.66 714.625 L2245.37 1184.61 L532.756 1445.72 L255.035 1132.39 L255.035 1132.39  Z" fill="#008000" fill-rule="evenodd" fill-opacity="0.1"/>
<polyline clip-path="url(#clip912)" style="stroke:#000000; stroke-linecap:round; stroke-linejoin:round; stroke-width:4; stroke-opacity:0.1; fill:none" points="255.035,1132.39 579.043,296.859 1041.91,140.197 1458.49,87.9763 2199.08,192.418 2291.66,714.625 2245.37,1184.61 532.756,1445.72 255.035,1132.39 "/>
<circle clip-path="url(#clip912)" cx="255.035" cy="1132.39" r="14.4" fill="#008000" fill-rule="evenodd" fill-opacity="1" stroke="#000000" stroke-opacity="1" stroke-width="3.2"/>
<circle clip-path="url(#clip912)" cx="579.043" cy="296.859" r="14.4" fill="#008000" fill-rule="evenodd" fill-opacity="1" stroke="#000000" stroke-opacity="1" stroke-width="3.2"/>
<circle clip-path="url(#clip912)" cx="1041.91" cy="140.197" r="14.4" fill="#008000" fill-rule="evenodd" fill-opacity="1" stroke="#000000" stroke-opacity="1" stroke-width="3.2"/>
<circle clip-path="url(#clip912)" cx="1458.49" cy="87.9763" r="14.4" fill="#008000" fill-rule="evenodd" fill-opacity="1" stroke="#000000" stroke-opacity="1" stroke-width="3.2"/>
<circle clip-path="url(#clip912)" cx="2199.08" cy="192.418" r="14.4" fill="#008000" fill-rule="evenodd" fill-opacity="1" stroke="#000000" stroke-opacity="1" stroke-width="3.2"/>
<circle clip-path="url(#clip912)" cx="2291.66" cy="714.625" r="14.4" fill="#008000" fill-rule="evenodd" fill-opacity="1" stroke="#000000" stroke-opacity="1" stroke-width="3.2"/>
<circle clip-path="url(#clip912)" cx="2245.37" cy="1184.61" r="14.4" fill="#008000" fill-rule="evenodd" fill-opacity="1" stroke="#000000" stroke-opacity="1" stroke-width="3.2"/>
<circle clip-path="url(#clip912)" cx="532.756" cy="1445.72" r="14.4" fill="#008000" fill-rule="evenodd" fill-opacity="1" stroke="#000000" stroke-opacity="1" stroke-width="3.2"/>
<circle clip-path="url(#clip912)" cx="255.035" cy="1132.39" r="14.4" fill="#008000" fill-rule="evenodd" fill-opacity="1" stroke="#000000" stroke-opacity="1" stroke-width="3.2"/>
</svg>
